<?xml version="1.0" encoding="utf-8"?>
<!-- Generator: Adobe Illustrator 22.0.1, SVG Export Plug-In . SVG Version: 6.00 Build 0)  -->
<svg version="1.1" id="Layer_1" xmlns="http://www.w3.org/2000/svg" xmlns:xlink="http://www.w3.org/1999/xlink" x="0px" y="0px"
	 viewBox="0 0 1366 768" style="enable-background:new 0 0 1366 768;" xml:space="preserve">
<style type="text/css">
	.st0{fill:#58595B;}
	.st1{fill:#299AB8;}
</style>
<g>
	<g>
		<path class="st0" d="M149.6,539.8c0-18.5,8.8-27.8,26.3-27.8c7.4,0,13.7,1.9,18.9,5.7c5.7,4.4,8.6,10.2,8.6,17.2v166.3h63
			c14.1,0,21.2,8.6,21.2,25.8c0,16.9-7.1,25.3-21.2,25.3H173c-5.6,0-10.9-2-15.9-5.9c-5-3.9-7.5-8.7-7.5-14.3V539.8z"/>
		<path class="st0" d="M290.4,664.5c0-25.2,8.5-47.1,25.6-65.6c17.1-18.5,38.1-27.8,63.2-27.8h4.7c24.3,0,43.5,8.4,57.8,25.1
			c12.8,15.1,20.3,35.2,22.6,60.3c0,7.9-0.8,13.2-2.5,16c-2.1,3.6-6.6,6.2-13.5,7.9H347c0,4.9,3.2,10.7,9.6,17.2
			c7.7,7.9,16.3,11.8,25.8,11.8l4.2-0.5c6.1-0.7,16.2-3.8,30.5-9.3c13.3-5.2,22-7.9,26.1-7.9c6.2,0,11.7,3.2,16.5,9.6
			c1.6,2.9,2.5,6.9,2.5,11.8c0,13.4-10.2,24.3-30.5,32.6c-16.1,6.5-32,9.8-47.7,9.8c-30.7,0-54.8-10.9-72.3-32.7
			C297.4,705.2,290.4,685.7,290.4,664.5z M344.7,643.7h67.2c-1.8-4.3-5.1-10.3-9.8-18.2c-4.4-3.9-10.5-7.3-18.2-10.1h-5.2
			C364.3,615.4,352.9,624.8,344.7,643.7z"/>
		<path class="st0" d="M479.8,661.6v-3.9c0-20.2,7.7-39.9,23.1-59.3c16.2-20.3,34.2-30.5,53.9-30.5h6.4c12.1,0,25.9,6.2,41.3,18.5
			c3.6-10.7,10.9-16,21.9-16c6.9,0,13.2,2.4,18.8,7.1c5.7,4.8,8.5,10.5,8.5,17.2v137.5c0,6.4-2.9,11.5-8.6,15.3
			c-4.9,3.3-10.7,4.9-17.5,4.9l-4.2,1c-4.9,0-12-4.5-21.2-13.5h-1c-11.8,10.8-25.8,16.2-41.8,16.2c-23.6,0-43.1-10.1-58.6-30.3
			C486.9,707.3,479.8,685.9,479.8,661.6z M531.5,661.6c0,10.2,2.8,19.6,8.4,28.3c7.1,10.8,16.5,16.2,28.3,16.2
			c10.5,0,18.9-5,25.1-15c5.4-8.7,8.1-18.5,8.1-29.5c0-11.5-2.8-21.2-8.4-29c-6.4-8.9-15.1-13.3-26.1-13.3
			c-10.7,0-19.4,3.9-26.2,11.8c-6.8,7.9-10.2,17.2-10.2,28.1L531.5,661.6z"/>
		<path class="st0" d="M669.3,661.6c0-29,8.9-52.2,26.6-69.4c15.6-15.3,33.8-22.9,54.6-22.9c16.9,0,30.3,4.8,40.4,14.5v-61.8
			c0-7.7,2.5-14.1,7.6-19.1c5.1-5,11.5-7.5,19.2-7.5c7.4,0,13.5,2.5,18.3,7.6c4.8,5.1,7.3,11.4,7.3,18.9v205
			c0,14.9-8,23.4-23.9,25.3l-3,1c-4.6,0-13.1-5.5-25.6-16.5c-12.5,12.8-26.8,19.2-43.1,19.2c-22.5,0-41.5-10.4-57.1-31.3
			C676.4,705.8,669.3,684.7,669.3,661.6z M721,664.6c-0.7,2.1-1,3.6-1,4.4c0,10,3.8,18.7,11.3,26.1c7.5,7.4,16.3,11.1,26.3,11.1
			c10.8,0,19.6-4.8,26.3-14.5c5.7-8.7,8.6-18.7,8.6-30c0-11.5-2.9-21-8.6-28.5c-6.4-8.4-15.2-12.5-26.3-12.5
			C733.2,620.5,721,635.2,721,664.6z"/>
		<path class="st1" d="M871.1,539.8c0-6.9,2.3-12.5,6.8-16.7c4.5-4.3,10.2-6.4,17.1-6.4H980c7.5,0,13.6,2.7,18.2,8.2
			c4.6,5.5,6.9,12.1,6.9,19.8c0,15.4-6.5,23.1-19.4,23.1H923v42.8H980c14.1,0,21.2,8.5,21.2,25.3c0,5.9-1.5,11.1-4.4,15.5
			c-3.4,5.1-8,7.6-13.5,7.6H923v44.8H980c18.7,0,28,8,28,24.1c0,6.1-1.7,11.6-5.2,16.5c-3.9,5.3-8.9,7.9-14.8,7.9h-98.4
			c-3.9,0-8-2-12.3-5.9c-4.3-3.9-6.4-7.9-6.4-11.8V539.8z"/>
		<path class="st1" d="M1032.8,557.7c-4.5-5.6-6.7-12-6.7-19.4c0-7.4,3-13.5,9.1-18.4c5.6-4.4,12.2-6.6,19.9-6.6
			c7.5,0,12.9,2.1,16,6.2l44.5,59.5l43.3-59.5c4.4-4.9,10.3-7.4,17.7-7.4c7.7,0,14.3,2.5,19.7,7.4c5.4,4.9,8.1,11.2,8.1,18.9
			c0,6.2-0.9,11.9-2.7,17l-55.4,70.1l60.3,78.5c6.9,9,10.3,17.8,10.3,26.3c0,7.4-2.9,13.2-8.8,17.6c-5.8,4.3-12.6,6.5-20.3,6.5
			c-7.4,0-12.5-2.3-15.3-6.9l-57.1-78.1l-52.2,73.1c-8.2,7.9-16.7,11.9-25.5,11.9c-6.4,0-11.6-2.5-15.6-7.6c-4-5.1-6-10.9-6-17.5
			c0-9,2.9-17.5,8.6-25.3l59.3-80.8L1032.8,557.7z"/>
	</g>
	<path class="st0" d="M1063,292.4c-15.6-20.6-35.8-37.8-58.8-49.7c-23.4-12.3-49.6-18.8-76-19.6c17.7-0.7,35.2-6,50.2-15.3
		c18.5-11.3,33.4-28.5,41.9-48.5c10.1-23.5,10.9-50.8,2.3-74.9c-8.9-25.6-28.3-47.3-52.7-59.2c-18.1-9-38.9-12.3-59-9.8
		c-22.4,2.8-43.7,13.2-59.7,29.1C836.7,59,826.3,77.8,822.2,98c-4.3,21.1-1.9,43.6,7,63.2c8.5,19.2,23,35.6,41,46.6
		c15.1,9.3,32.6,14.5,50.2,15.3c-36.6,0.8-72.8,13.6-101.8,36c-18.3,14.1-33.8,31.9-45.3,52c11.4,4.9,21.4,10.6,30,17.2
		c10.1-17.8,24.1-33.3,40.8-45.1c20.8-14.7,45.7-23.5,71.2-25.1c25.4-1.7,51.2,3.7,73.8,15.5c23.3,12.2,43,31.2,56,54
		c12.1,20.9,18.4,45.1,18.4,69.2c11.6,0,23.2,0,34.8,0C1098.3,359.5,1085.7,322.2,1063,292.4z M918.1,188.1
		c-14.6-1.3-28.7-7.3-39.7-17c-12.2-10.7-20.4-25.7-22.8-41.8c-2.7-17.4,1.5-35.8,11.6-50.2c11-16.1,29.1-27,48.5-29.2
		c14.5-1.8,29.6,1,42.4,8.1c15.1,8.3,26.9,22.4,32.2,38.8c5,15.1,4.7,32-1,46.9c-5.2,13.8-14.9,25.8-27.4,33.7
		C949.1,185.7,933.4,189.5,918.1,188.1z"/>
	<path class="st0" d="M554.3,324.5c8.5-7.5,18-14.2,28.7-19.5c-2.7-4.3-5.6-8.6-8.7-12.6c-15.6-20.6-35.8-37.8-58.8-49.7
		c-23.4-12.3-49.6-18.8-75.9-19.6c17.7-0.7,35.2-6,50.2-15.3c18.5-11.3,33.4-28.5,41.9-48.5c10.1-23.5,10.9-50.8,2.3-74.9
		c-8.9-25.6-28.3-47.3-52.7-59.2c-18.1-9-38.9-12.3-59-9.8c-22.4,2.8-43.7,13.2-59.7,29.1C347.9,59,337.5,77.8,333.4,98
		c-4.4,21.1-1.9,43.6,7,63.2c8.6,19.2,23.1,35.6,41,46.6c15.1,9.3,32.6,14.5,50.2,15.3c-36.6,0.8-72.8,13.6-101.8,36
		c-20.4,15.7-37.3,35.9-49,58.8c-12.5,24.3-19.1,51.6-19.1,79c11.6,0,23.2,0,34.8,0c0-20.2,4.3-40.4,12.9-58.7
		c10.1-21.9,26.2-41.1,45.9-55c20.8-14.7,45.7-23.5,71.2-25.1c25.4-1.7,51.2,3.7,73.8,15.5C522.5,285.4,541.3,303.2,554.3,324.5z
		 M429.3,188.1c-14.6-1.3-28.7-7.3-39.7-17c-12.2-10.7-20.4-25.7-22.8-41.8c-2.6-17.4,1.5-35.8,11.6-50.2c11-16.1,29.1-27,48.5-29.2
		c14.5-1.8,29.6,1,42.4,8.1c15.1,8.3,26.9,22.4,32.2,38.8c5,15.1,4.7,32-1,46.9c-5.2,13.8-14.9,25.8-27.3,33.7
		C460.3,185.7,444.6,189.5,429.3,188.1z"/>
	<g>
		<g>
			<path class="st1" d="M667.1,15.6c23.7-3.1,48.3,0.9,69.7,11.5c28.8,14,51.6,39.7,62.2,69.9c10.1,28.5,9.2,60.7-2.7,88.5
				c-10,23.6-27.6,44-49.4,57.3c-17.8,11-38.5,17.2-59.3,18c31.1,0.9,62.1,8.6,89.7,23.1c27.1,14.1,51,34.3,69.4,58.7
				c26.8,35.2,41.6,79.3,41.5,123.6c-13.7,0-27.4,0-41.1,0c0-28.5-7.4-57-21.7-81.8c-15.4-27-38.6-49.4-66.1-63.7
				c-26.6-14-57.2-20.4-87.2-18.4c-30,1.8-59.5,12.2-84.1,29.6c-23.3,16.4-42.3,39.1-54.2,65c-10,21.6-15.2,45.5-15.2,69.3
				c-13.7,0-27.4,0-41.1,0c0-32.3,7.7-64.6,22.5-93.3c13.8-27,33.8-50.9,57.9-69.4C592,277,634.8,261.9,678,261
				c-20.9-1-41.5-7.1-59.4-18.1c-21.2-12.9-38.3-32.3-48.4-55c-10.5-23.2-13.4-49.8-8.2-74.7c4.8-23.9,17.1-46.2,34.5-63.2
				C615.5,31.3,640.6,18.9,667.1,15.6z M672.5,56.3c-22.9,2.6-44.2,15.6-57.3,34.5c-11.9,17.1-16.8,38.8-13.7,59.3
				c2.7,18.9,12.5,36.8,26.9,49.3c13,11.5,29.7,18.5,46.9,20c18.1,1.7,36.6-2.8,51.9-12.7c14.7-9.3,26.2-23.5,32.3-39.8
				c6.7-17.6,7.1-37.5,1.1-55.4c-6.3-19.3-20.2-36-38-45.8C707.5,57.5,689.6,54.2,672.5,56.3z"/>
		</g>
	</g>
</g>
</svg>
